<svg width="28" height="33" viewBox="0 0 28 33" fill="none" xmlns="http://www.w3.org/2000/svg">
<path d="M8.23066 0L0 33H18.73L27.03 0H8.23066Z" fill="#EAE5DC" fill-opacity="0.5"/>
<path d="M11.0226 8.42C10.7453 8.42 10.5586 8.36133 10.4626 8.244C10.3666 8.12667 10.3506 7.972 10.4146 7.78C10.4679 7.59867 10.5799 7.44933 10.7506 7.332C10.9213 7.204 11.1506 7.14 11.4386 7.14L13.9346 7.108C14.4039 7.09733 14.8039 7.06 15.1346 6.996C15.4653 6.92133 15.7639 6.804 16.0306 6.644C16.2973 6.47333 16.5693 6.25467 16.8466 5.988C17.0386 5.83867 17.2093 5.732 17.3586 5.668C17.5079 5.59333 17.6519 5.556 17.7906 5.556C18.0359 5.556 18.2066 5.61467 18.3026 5.732C18.3986 5.84933 18.4093 6.036 18.3346 6.292L13.0226 26.164C12.9373 26.452 12.9319 26.6813 13.0066 26.852C13.0919 27.012 13.3053 27.1133 13.6466 27.156L15.8066 27.428C15.9879 27.4493 16.1213 27.5027 16.2066 27.588C16.2919 27.6733 16.3239 27.7853 16.3026 27.924C16.2919 28.1053 16.2119 28.2493 16.0626 28.356C15.9133 28.452 15.7159 28.5 15.4706 28.5H5.69459C5.45992 28.5 5.28926 28.452 5.18259 28.356C5.07592 28.26 5.03326 28.132 5.05459 27.972C5.06526 27.8227 5.13459 27.6947 5.26259 27.588C5.39059 27.4813 5.56126 27.412 5.77459 27.38L8.28659 27.124C8.58526 27.092 8.83592 26.996 9.03859 26.836C9.25192 26.6653 9.40659 26.4307 9.50259 26.132L13.9026 9.524C14.0306 9.108 14.0466 8.82533 13.9506 8.676C13.8653 8.52667 13.6626 8.452 13.3426 8.452L11.0226 8.42Z" fill="white"/>
</svg>
