<svg width="205" height="241" viewBox="0 0 205 241" fill="none" xmlns="http://www.w3.org/2000/svg">
<g filter="url(#filter0_dd_389_2451)">
<path d="M48 47C48 42.5817 51.5817 39 56 39H130C141.046 39 150 47.9543 150 59V169C150 173.418 146.418 177 142 177H56C51.5817 177 48 173.418 48 169V47Z" fill="#111010" shape-rendering="crispEdges"/>
<path d="M56 39.5H130C140.77 39.5 149.5 48.2304 149.5 59V169C149.5 173.142 146.142 176.5 142 176.5H56C51.8579 176.5 48.5 173.142 48.5 169V47L48.5098 46.6143C48.7105 42.6514 51.9872 39.5 56 39.5Z" stroke="white" stroke-opacity="0.18" shape-rendering="crispEdges"/>
<g clip-path="url(#clip0_389_2451)">
<rect x="61" y="70" width="19" height="7" fill="#3B82F6"/>
<rect x="80" y="70" width="19" height="7" fill="#1D4ED8"/>
<rect x="99" y="70" width="19" height="7" fill="#FB7185"/>
<rect x="118" y="70" width="19" height="7" fill="#E11D48"/>
</g>
<rect x="61" y="82" width="76" height="7" rx="2" fill="url(#paint0_linear_389_2451)"/>
<path d="M62.9085 99.9365H66.192L66.225 100.404H62.8535L62.9085 99.9365ZM63.4365 102.802C63.4365 102.861 63.4145 102.908 63.3705 102.945C63.3265 102.982 63.255 103 63.156 103H61.451C61.3557 103 61.2842 102.983 61.2365 102.95C61.1925 102.914 61.1705 102.864 61.1705 102.802C61.1705 102.758 61.1852 102.721 61.2145 102.692C61.2438 102.659 61.297 102.626 61.374 102.593L61.5885 102.521C61.6912 102.477 61.7682 102.417 61.8195 102.34C61.8745 102.259 61.935 102.118 62.001 101.916L63.9315 96.147C63.9755 96.015 63.9847 95.9197 63.959 95.861C63.937 95.8023 63.8618 95.7565 63.7335 95.7235C63.6308 95.6978 63.5593 95.6667 63.519 95.63C63.4787 95.5933 63.4585 95.5475 63.4585 95.4925C63.4585 95.4302 63.4805 95.3825 63.5245 95.3495C63.5722 95.3165 63.6437 95.3 63.739 95.3H66.0215C66.1168 95.3 66.1865 95.3165 66.2305 95.3495C66.2745 95.3825 66.2965 95.4302 66.2965 95.4925C66.2965 95.5475 66.2763 95.5933 66.236 95.63C66.1993 95.6667 66.1333 95.696 66.038 95.718C65.9317 95.7437 65.8675 95.7785 65.8455 95.8225C65.8272 95.8665 65.8363 95.9417 65.873 96.048L67.908 102.07C67.9593 102.221 68.018 102.333 68.084 102.406C68.1537 102.479 68.2545 102.532 68.3865 102.565C68.4855 102.595 68.5515 102.628 68.5845 102.664C68.6212 102.697 68.6395 102.743 68.6395 102.802C68.6395 102.861 68.6157 102.908 68.568 102.945C68.5203 102.982 68.4488 103 68.3535 103H66.17C66.0747 103 66.0032 102.982 65.9555 102.945C65.9115 102.908 65.8895 102.861 65.8895 102.802C65.8895 102.747 65.906 102.703 65.939 102.67C65.9757 102.637 66.0307 102.611 66.104 102.593L66.489 102.532C66.5843 102.51 66.6338 102.47 66.6375 102.411C66.6412 102.349 66.6192 102.25 66.5715 102.114L64.4705 95.8115L64.63 95.7345L62.5895 101.856C62.5492 101.992 62.5272 102.102 62.5235 102.186C62.5235 102.27 62.551 102.34 62.606 102.395C62.661 102.446 62.7435 102.49 62.8535 102.527L63.222 102.598C63.2953 102.62 63.3485 102.646 63.3815 102.675C63.4182 102.705 63.4365 102.747 63.4365 102.802ZM72.4964 102.642C73.0207 102.719 73.4332 102.822 73.7339 102.95C74.0382 103.079 74.2545 103.237 74.3829 103.424C74.5149 103.611 74.5809 103.831 74.5809 104.084C74.5809 104.557 74.3315 104.943 73.8329 105.244C73.3342 105.545 72.6174 105.695 71.6824 105.695C71.0554 105.695 70.5512 105.638 70.1699 105.525C69.7922 105.415 69.5172 105.262 69.3449 105.068C69.1762 104.877 69.0919 104.661 69.0919 104.419C69.0919 104.118 69.2404 103.845 69.5374 103.6C69.8344 103.354 70.3587 103.185 71.1104 103.094L71.2314 103.259C70.828 103.31 70.5219 103.422 70.3129 103.594C70.1075 103.77 70.0049 103.966 70.0049 104.183C70.0049 104.509 70.1442 104.773 70.4229 104.975C70.7052 105.176 71.1874 105.277 71.8694 105.277C72.258 105.277 72.5752 105.24 72.8209 105.167C73.0702 105.097 73.2535 104.995 73.3709 104.859C73.4882 104.727 73.5469 104.571 73.5469 104.392C73.5469 104.252 73.4992 104.128 73.4039 104.018C73.3085 103.911 73.138 103.814 72.8924 103.726C72.6504 103.642 72.3057 103.563 71.8584 103.49C71.312 103.402 70.8977 103.308 70.6154 103.209C70.3367 103.114 70.1479 103.007 70.0489 102.89C69.9499 102.769 69.9004 102.63 69.9004 102.472C69.9004 102.344 69.9352 102.221 70.0049 102.103C70.0745 101.982 70.1937 101.876 70.3624 101.784C70.531 101.689 70.7639 101.619 71.0609 101.575L71.2094 101.652C71.0737 101.715 70.9784 101.777 70.9234 101.839C70.8684 101.902 70.8409 101.97 70.8409 102.043C70.8409 102.102 70.8702 102.162 70.9289 102.224C70.9912 102.287 71.1379 102.351 71.3689 102.417C71.6035 102.483 71.9794 102.558 72.4964 102.642ZM72.7549 98.292L72.9364 97.9565C73.094 97.6412 73.281 97.4065 73.4974 97.2525C73.7174 97.0948 73.9484 97.016 74.1904 97.016C74.3994 97.016 74.568 97.0728 74.6964 97.1865C74.8284 97.3002 74.8944 97.4542 74.8944 97.6485C74.8944 97.8135 74.854 97.9455 74.7734 98.0445C74.6927 98.1398 74.5827 98.1875 74.4434 98.1875C74.348 98.1875 74.271 98.1637 74.2124 98.116C74.1537 98.0683 74.1024 98.0133 74.0584 97.951C74.0144 97.8887 73.9649 97.8337 73.9099 97.786C73.8585 97.7383 73.787 97.7145 73.6954 97.7145C73.589 97.7145 73.49 97.7567 73.3984 97.841C73.3104 97.9253 73.1949 98.0977 73.0519 98.358L72.7549 98.292ZM74.1354 99.7C74.1354 100.122 74.029 100.492 73.8164 100.811C73.6074 101.13 73.3159 101.379 72.9419 101.559C72.5715 101.735 72.1444 101.823 71.6604 101.823C71.1837 101.823 70.7675 101.737 70.4119 101.564C70.0562 101.388 69.7794 101.152 69.5814 100.855C69.387 100.554 69.2899 100.219 69.2899 99.8485C69.2899 99.4268 69.3944 99.0565 69.6034 98.7375C69.8124 98.4185 70.1039 98.171 70.4779 97.995C70.8519 97.819 71.2809 97.731 71.7649 97.731C72.2415 97.731 72.6577 97.8172 73.0134 97.9895C73.369 98.1618 73.644 98.3983 73.8384 98.699C74.0364 98.996 74.1354 99.3297 74.1354 99.7ZM71.5559 98.1215C71.3139 98.1288 71.1104 98.1985 70.9454 98.3305C70.7804 98.4588 70.6612 98.644 70.5879 98.886C70.5145 99.1243 70.4907 99.4122 70.5164 99.7495C70.542 100.098 70.6135 100.4 70.7309 100.657C70.8482 100.91 71.004 101.102 71.1984 101.234C71.3927 101.363 71.6145 101.423 71.8639 101.416C72.2342 101.401 72.5092 101.253 72.6889 100.97C72.8722 100.688 72.9437 100.292 72.9034 99.7825C72.8667 99.2545 72.7274 98.842 72.4854 98.545C72.247 98.248 71.9372 98.1068 71.5559 98.1215Z" fill="#DAD7D2"/>
<rect x="79" y="98" width="58" height="3" rx="1.5" fill="white" fill-opacity="0.18"/>
<rect x="61" y="110" width="53.2" height="3" rx="1.5" fill="white" fill-opacity="0.18"/>
<path d="M128 40H129C140.046 40 149 48.9543 149 60V61H136C131.582 61 128 57.4183 128 53V40Z" fill="#090909"/>
<g filter="url(#filter1_d_389_2451)">
<rect x="135" y="32" width="22" height="22" rx="11" fill="#6EE7A0" shape-rendering="crispEdges"/>
<path d="M150 40L144.5 45.5L142 43" stroke="#090909" stroke-width="1.5" stroke-linecap="round" stroke-linejoin="round"/>
</g>
</g>
<defs>
<filter id="filter0_dd_389_2451" x="0" y="0" width="205" height="241" filterUnits="userSpaceOnUse" color-interpolation-filters="sRGB">
<feFlood flood-opacity="0" result="BackgroundImageFix"/>
<feColorMatrix in="SourceAlpha" type="matrix" values="0 0 0 0 0 0 0 0 0 0 0 0 0 0 0 0 0 0 127 0" result="hardAlpha"/>
<feOffset/>
<feGaussianBlur stdDeviation="16"/>
<feComposite in2="hardAlpha" operator="out"/>
<feColorMatrix type="matrix" values="0 0 0 0 0.431373 0 0 0 0 0.905882 0 0 0 0 0.627451 0 0 0 0.12 0"/>
<feBlend mode="normal" in2="BackgroundImageFix" result="effect1_dropShadow_389_2451"/>
<feColorMatrix in="SourceAlpha" type="matrix" values="0 0 0 0 0 0 0 0 0 0 0 0 0 0 0 0 0 0 127 0" result="hardAlpha"/>
<feOffset dy="16"/>
<feGaussianBlur stdDeviation="24"/>
<feComposite in2="hardAlpha" operator="out"/>
<feColorMatrix type="matrix" values="0 0 0 0 0 0 0 0 0 0 0 0 0 0 0 0 0 0 0.6 0"/>
<feBlend mode="normal" in2="effect1_dropShadow_389_2451" result="effect2_dropShadow_389_2451"/>
<feBlend mode="normal" in="SourceGraphic" in2="effect2_dropShadow_389_2451" result="shape"/>
</filter>
<filter id="filter1_d_389_2451" x="123" y="20" width="46" height="46" filterUnits="userSpaceOnUse" color-interpolation-filters="sRGB">
<feFlood flood-opacity="0" result="BackgroundImageFix"/>
<feColorMatrix in="SourceAlpha" type="matrix" values="0 0 0 0 0 0 0 0 0 0 0 0 0 0 0 0 0 0 127 0" result="hardAlpha"/>
<feOffset/>
<feGaussianBlur stdDeviation="6"/>
<feComposite in2="hardAlpha" operator="out"/>
<feColorMatrix type="matrix" values="0 0 0 0 0.431373 0 0 0 0 0.905882 0 0 0 0 0.627451 0 0 0 0.5 0"/>
<feBlend mode="normal" in2="BackgroundImageFix" result="effect1_dropShadow_389_2451"/>
<feBlend mode="normal" in="SourceGraphic" in2="effect1_dropShadow_389_2451" result="shape"/>
</filter>
<linearGradient id="paint0_linear_389_2451" x1="61" y1="85.5" x2="137" y2="85.5" gradientUnits="userSpaceOnUse">
<stop stop-color="#2563EB"/>
<stop offset="1" stop-color="#E11D48"/>
</linearGradient>
<clipPath id="clip0_389_2451">
<rect x="61" y="70" width="76" height="7" rx="2" fill="white"/>
</clipPath>
</defs>
</svg>
